HIERARCHY
ROOT joint_Root
{
	OFFSET 0.0 0.0 0.0
	CHANNELS 6 Xposition Yposition Zposition Zrotation Xrotation Yrotation 
	JOINT Hips
	{
		OFFSET 4.5925 91.4895 -427.239
		CHANNELS 6 Xposition Yposition Zposition Zrotation Xrotation Yrotation 
		JOINT Spine
		{
			OFFSET 15.7357 0.0 0.0
			CHANNELS 6 Xposition Yposition Zposition Zrotation Xrotation Yrotation 
			JOINT Chest
			{
				OFFSET 8.98455 -0.406207 0.0
				CHANNELS 6 Xposition Yposition Zposition Zrotation Xrotation Yrotation 
				JOINT Neck
				{
					OFFSET 16.3773 0.0 0.0
					CHANNELS 6 Xposition Yposition Zposition Zrotation Xrotation Yrotation 
					JOINT Head
					{
						OFFSET 6.45672 0.0 0.0
						CHANNELS 6 Xposition Yposition Zposition Zrotation Xrotation Yrotation 
						End Site
						{
							OFFSET 0.0 0.0 0.0
						}
					}
				}
				JOINT Shoulder_L
				{
					OFFSET 12.9942 -0.242716 4.98039
					CHANNELS 6 Xposition Yposition Zposition Zrotation Xrotation Yrotation 
					JOINT UpperArm_L
					{
						OFFSET 5.34809 0.0 0.0
						CHANNELS 6 Xposition Yposition Zposition Zrotation Xrotation Yrotation 
						JOINT LowerArm_L
						{
							OFFSET 24.3286 1.87007e-05 0.0
							CHANNELS 6 Xposition Yposition Zposition Zrotation Xrotation Yrotation 
							JOINT Hand_L
							{
								OFFSET 22.2916 0.0 0.0
								CHANNELS 6 Xposition Yposition Zposition Zrotation Xrotation Yrotation 
								End Site
								{
									OFFSET 0.0 0.0 0.0
								}
							}
						}
					}
				}
				JOINT Shoulder_R
				{
					OFFSET 12.9945 -0.242716 -4.98039
					CHANNELS 6 Xposition Yposition Zposition Zrotation Xrotation Yrotation 
					JOINT UpperArm_R
					{
						OFFSET -5.34813 0.0 0.0
						CHANNELS 6 Xposition Yposition Zposition Zrotation Xrotation Yrotation 
						JOINT LowerArm_R
						{
							OFFSET -24.3289 0.000322201 0.0
							CHANNELS 6 Xposition Yposition Zposition Zrotation Xrotation Yrotation 
							JOINT Hand_R
							{
								OFFSET -22.2915 -0.000108084 0.0
								CHANNELS 6 Xposition Yposition Zposition Zrotation Xrotation Yrotation 
								End Site
								{
									OFFSET 0.0 0.0 0.0
								}
							}
						}
					}
				}
			}
		}
		JOINT UpperLeg_L
		{
			OFFSET -2.19248 -6.46944 0.0
			CHANNELS 6 Xposition Yposition Zposition Zrotation Xrotation Yrotation 
			JOINT LowerLeg_L
			{
				OFFSET 39.0811 0.0 -1.23785e-05
				CHANNELS 6 Xposition Yposition Zposition Zrotation Xrotation Yrotation 
				JOINT Foot_L
				{
					OFFSET 40.9854 0.0 -1.26872e-05
					CHANNELS 6 Xposition Yposition Zposition Zrotation Xrotation Yrotation 
					JOINT Toes_L
					{
						OFFSET 11.7543 0.0 0.0
						CHANNELS 6 Xposition Yposition Zposition Zrotation Xrotation Yrotation 
						End Site
						{
							OFFSET 0.0 0.0 0.0
						}
					}
				}
			}
		}
		JOINT UpperLeg_R
		{
			OFFSET -2.19251 6.46944 0.0
			CHANNELS 6 Xposition Yposition Zposition Zrotation Xrotation Yrotation 
			JOINT LowerLeg_R
			{
				OFFSET -39.0811 -0.00228153 -0.0401928
				CHANNELS 6 Xposition Yposition Zposition Zrotation Xrotation Yrotation 
				JOINT Foot_R
				{
					OFFSET -40.9854 0.0 0.0
					CHANNELS 6 Xposition Yposition Zposition Zrotation Xrotation Yrotation 
					JOINT Toes_R
					{
						OFFSET -11.7543 0.0 0.0
						CHANNELS 6 Xposition Yposition Zposition Zrotation Xrotation Yrotation 
						End Site
						{
							OFFSET 0.0 0.0 0.0
						}
					}
				}
			}
		}
	}
}
MOTION
Frames:	6
Frame Time:	0.0333333
0.000000 0.000000 0.000000 0.000000 0.000000 -0.000000 -0.843688 90.824600 -8.350280 88.797100 -3.376470 5.151460 15.735700 0.000005 -0.000001 86.609100 75.808700 -87.977500 8.984550 -0.406207 -0.000000 20.553300 -1.791050 -2.421470 16.377300 -0.000001 -0.000001 6.790280 -3.847630 3.708240 6.456720 -0.000001 -0.000000 -14.645500 -2.089130 -0.655522 12.994200 -0.242716 4.980390 -91.133600 4.932450 -77.039300 5.348090 -0.000007 -0.000001 -46.936100 37.423200 -40.227100 24.328600 0.000019 0.000005 8.003730 19.667800 -22.673600 22.291600 -0.000001 0.000005 11.881600 5.204140 2.615140 12.994500 -0.242716 -4.980390 89.627400 1.567980 -76.630600 -5.348130 -0.000001 -0.000004 -49.139700 -15.806900 -81.541800 -24.328900 0.000322 -0.000009 25.187700 -9.958900 -110.190000 -22.291500 -0.000108 -0.000004 37.928600 5.306320 -0.105702 -2.192480 -6.469440 -0.000000 -175.795000 -11.483100 -12.082000 39.081100 -0.000007 -0.000012 -0.146320 0.227488 32.749400 40.985400 -0.000006 -0.000013 0.047464 3.976140 -65.455100 11.754300 -0.000000 0.000003 -0.000105 -0.001075 -16.618800 -2.192510 6.469440 -0.000001 179.534000 19.342600 168.759000 -39.081100 -0.002282 -0.040193 -0.054813 0.093333 31.907300 -40.985400 0.000008 0.000006 6.239710 11.116700 -66.524500 -11.754300 -0.000006 -0.000006 -0.003139 -0.042167 -18.288000
0.000000 0.000000 0.000000 0.000000 0.000000 -0.000000 -0.837564 90.834400 -8.368650 88.799400 -3.310490 5.121570 15.735700 0.000005 -0.000001 86.599000 75.809600 -87.974700 8.984550 -0.406207 -0.000000 20.551200 -1.796640 -2.435150 16.377300 -0.000001 -0.000001 6.782730 -3.793260 3.645330 6.456720 -0.000001 -0.000000 -14.706100 -2.016520 -0.616781 12.994200 -0.242716 4.980390 -91.133700 4.929760 -77.032100 5.348090 -0.000007 -0.000001 -46.882200 37.347900 -40.175900 24.328600 0.000019 0.000005 7.983190 19.567100 -22.721000 22.291600 -0.000001 0.000005 11.881900 5.204050 2.617380 12.994500 -0.242716 -4.980390 89.620100 1.599860 -76.639200 -5.348130 -0.000001 -0.000004 -50.950100 -15.916300 -81.283300 -24.328900 0.000322 -0.000009 25.219800 -9.919390 -110.090000 -22.291500 -0.000108 -0.000004 37.982500 5.304700 -0.059825 -2.192480 -6.469440 -0.000000 -175.816000 -11.487400 -12.117100 39.081100 -0.000007 -0.000012 -0.143490 0.223522 32.698700 40.985400 -0.000006 -0.000013 0.074238 4.046690 -65.405900 11.754300 -0.000000 0.000003 -0.000102 -0.001045 -16.617600 -2.192510 6.469440 -0.000001 179.528000 19.453600 168.743000 -39.081100 -0.002282 -0.040193 -0.056698 0.096560 31.853800 -40.985400 0.000008 0.000006 6.212750 11.157900 -66.480800 -11.754300 -0.000006 -0.000006 -0.003132 -0.042086 -18.284700
0.000000 0.000000 0.000000 0.000000 0.000000 -0.000000 -0.823500 90.849100 -8.365800 88.809100 -3.235880 5.131100 15.735700 0.000005 -0.000001 86.548200 75.804800 -87.935900 8.984550 -0.406207 -0.000000 20.559000 -1.823110 -2.454330 16.377300 -0.000001 -0.000001 6.791720 -3.740720 3.638300 6.456720 -0.000001 -0.000000 -14.775100 -1.931310 -0.639160 12.994200 -0.242716 4.980390 -91.130600 4.920450 -77.042200 5.348090 -0.000007 -0.000001 -46.925800 37.207500 -40.045900 24.328600 0.000019 0.000005 8.058670 19.746700 -22.736600 22.291600 -0.000001 0.000005 11.830600 5.202910 2.646080 12.994500 -0.242716 -4.980390 89.606500 1.653920 -76.615100 -5.348130 -0.000001 -0.000004 -53.086000 -16.033800 -80.987200 -24.328900 0.000322 -0.000009 24.997900 -9.733940 -109.931000 -22.291500 -0.000108 -0.000004 38.066800 5.302420 0.004226 -2.192480 -6.469440 -0.000000 -175.840000 -11.517800 -12.072500 39.081100 -0.000007 -0.000012 -0.140434 0.219408 32.621900 40.985400 -0.000006 -0.000013 0.105812 4.110010 -65.370200 11.754300 -0.000000 0.000003 -0.000099 -0.001021 -16.616700 -2.192510 6.469440 -0.000001 179.489000 19.529500 168.804000 -39.081100 -0.002282 -0.040193 -0.057477 0.098115 31.775400 -40.985400 0.000008 0.000006 6.144490 11.187500 -66.438500 -11.754300 -0.000006 -0.000006 -0.003244 -0.043334 -18.335500
0.000000 0.000000 0.000000 0.000000 0.000000 -0.000000 -0.811087 90.854000 -8.366650 88.797000 -3.179500 5.088820 15.735700 0.000005 -0.000001 86.458400 75.829000 -87.855600 8.984550 -0.406207 -0.000000 20.507600 -1.864180 -2.466650 16.377300 -0.000001 -0.000001 6.851280 -3.720280 3.552550 6.456720 -0.000001 -0.000000 -14.862600 -1.861450 -0.611184 12.994200 -0.242716 4.980390 -91.125200 4.897260 -77.043500 5.348090 -0.000007 -0.000001 -46.986300 37.068800 -39.922900 24.328600 0.000019 0.000005 8.044780 19.828000 -22.620500 22.291600 -0.000001 0.000005 11.863200 5.204050 2.617560 12.994500 -0.242716 -4.980390 89.598900 1.689530 -76.643200 -5.348130 -0.000001 -0.000004 -55.584400 -16.147400 -80.615700 -24.328900 0.000322 -0.000009 24.915900 -9.587050 -109.724000 -22.291500 -0.000108 -0.000004 38.119000 5.298780 0.106510 -2.192480 -6.469440 -0.000000 -175.842000 -11.496400 -12.114900 39.081100 -0.000007 -0.000012 -0.142518 0.222812 32.604600 40.985400 -0.000006 -0.000013 0.125275 4.169050 -65.358300 11.754300 -0.000000 0.000003 -0.000099 -0.001019 -16.616700 -2.192510 6.469440 -0.000001 179.500000 19.572500 168.783000 -39.081100 -0.002282 -0.040193 -0.057722 0.098642 31.741200 -40.985400 0.000008 0.000006 6.107430 11.169500 -66.417000 -11.754300 -0.000006 -0.000006 -0.003243 -0.043324 -18.335100
0.000000 0.000000 0.000000 0.000000 0.000000 -0.000000 -0.803867 90.856200 -8.367160 88.771000 -3.119450 5.065740 15.735700 0.000005 -0.000001 86.388200 75.850800 -87.779100 8.984550 -0.406207 -0.000000 20.461900 -1.894290 -2.449430 16.377300 -0.000001 -0.000001 6.865360 -3.695820 3.482130 6.456720 -0.000001 -0.000000 -14.946500 -1.839850 -0.641778 12.994200 -0.242716 4.980390 -91.120500 4.883880 -77.061900 5.348090 -0.000007 -0.000001 -47.072000 36.965900 -39.763500 24.328600 0.000019 0.000005 8.050990 19.940700 -22.525900 22.291600 -0.000001 0.000005 11.764100 5.204030 2.618020 12.994500 -0.242716 -4.980390 89.590300 1.726200 -76.647200 -5.348130 -0.000001 -0.000004 -58.294200 -16.309800 -80.217000 -24.328900 0.000322 -0.000009 24.756600 -9.370960 -109.448000 -22.291500 -0.000108 -0.000004 38.362500 5.298120 0.124278 -2.192480 -6.469440 -0.000000 -175.836000 -11.472900 -12.151800 39.081100 -0.000007 -0.000012 -0.140451 0.219527 32.610900 40.985400 -0.000006 -0.000013 0.140819 4.184230 -65.355400 11.754300 -0.000000 0.000003 -0.000108 -0.001101 -16.619700 -2.192510 6.469440 -0.000001 179.532000 19.613600 168.768000 -39.081100 -0.002282 -0.040193 -0.056431 0.096625 31.722200 -40.985400 0.000008 0.000006 6.145940 11.133500 -66.414100 -11.754300 -0.000006 -0.000006 -0.003253 -0.043434 -18.339600
0.000000 0.000000 0.000000 0.000000 0.000000 -0.000000 -0.784280 90.849900 -8.349220 88.760700 -3.149660 5.074980 15.735700 0.000005 -0.000001 86.358200 75.865000 -87.749300 8.984550 -0.406207 -0.000000 20.432600 -1.906730 -2.447920 16.377300 -0.000001 -0.000001 6.856310 -3.691520 3.394860 6.456720 -0.000001 -0.000000 -15.025800 -1.761820 -0.723701 12.994200 -0.242716 4.980390 -91.120400 4.882210 -77.058800 5.348090 -0.000007 -0.000001 -47.153100 36.896000 -39.627100 24.328600 0.000019 0.000005 8.054350 20.073100 -22.406100 22.291600 -0.000001 0.000005 11.766700 5.202140 2.665530 12.994500 -0.242716 -4.980390 89.569500 1.818550 -76.681000 -5.348130 -0.000001 -0.000004 -61.083600 -16.502600 -79.933400 -24.328900 0.000322 -0.000009 24.475900 -9.076360 -109.113000 -22.291500 -0.000108 -0.000004 38.548400 5.290960 0.324375 -2.192480 -6.469440 -0.000000 -175.839000 -11.456500 -12.141000 39.081100 -0.000007 -0.000012 -0.137740 0.214929 32.654600 40.985400 -0.000006 -0.000013 0.149441 4.154030 -65.401900 11.754300 -0.000000 0.000003 -0.000096 -0.000998 -16.615900 -2.192510 6.469440 -0.000001 179.504000 19.640600 168.786000 -39.081100 -0.002282 -0.040193 -0.060093 0.102502 31.734400 -40.985400 0.000008 0.000006 6.045780 11.216600 -66.408600 -11.754300 -0.000006 -0.000006 -0.003149 -0.042273 -18.292400
